<svg xmlns="http://www.w3.org/2000/svg" width="1200" height="470" viewBox="0 0 1200 470">
  <rect width="1200" height="470" fill="#0f172a"/><text x="55" y="55" fill="#f8fafc" font-size="28">Direct 判定是一条“全部成立”的证据链</text>
  <g font-size="17" text-anchor="middle"><g fill="#153c31" stroke="#34d399" stroke-width="2"><rect x="45" y="140" width="155" height="85" rx="12"/><rect x="230" y="140" width="155" height="85" rx="12"/><rect x="415" y="140" width="155" height="85" rx="12"/><rect x="600" y="140" width="155" height="85" rx="12"/><rect x="785" y="140" width="155" height="85" rx="12"/><rect x="970" y="140" width="185" height="85" rx="12"/></g><g fill="#fff"><text x="122" y="176">两种拓扑</text><text x="122" y="200">均合法协商</text><text x="307" y="176">selected pair</text><text x="307" y="200">非 relay + UDP</text><text x="492" y="176">当前代 RTP</text><text x="492" y="200">与 H.264 AU</text><text x="677" y="176">submitted</text><text x="677" y="200">进入解码器</text><text x="862" y="176">decoded</text><text x="862" y="200">+ rendered</text><text x="1062" y="176">presented</text><text x="1062" y="200">+ 非黑 framebuffer</text></g><g stroke="#fbbf24" stroke-width="5"><path d="M200 182h30"/><path d="M385 182h30"/><path d="M570 182h30"/><path d="M755 182h30"/><path d="M940 182h30"/></g></g>
  <rect x="380" y="305" width="440" height="85" rx="14" fill="#3b1d2b" stroke="#fb7185" stroke-width="2"/><text x="600" y="340" text-anchor="middle" fill="#fecdd3" font-size="20">缺任一项：只能 Inconclusive / RoleRegression</text><text x="600" y="370" text-anchor="middle" fill="#fff" font-size="17">ICE Connected 或 srflx_observed 单独都不够</text>
</svg>
